<?xml version="1.0" encoding="utf-8"?><svg viewBox="0 0 20 22" xmlns="http://www.w3.org/2000/svg" xmlns:xlink="http://www.w3.org/1999/xlink"><svg viewBox="0 0 19 19" id="adobe" xmlns="http://www.w3.org/2000/svg"><path d="M0 15.512V3.488c0-.234.027-.457.066-.68A3.719 3.719 0 0 1 .562 1.55c.118-.195.266-.359.415-.527.16-.164.32-.304.507-.43.184-.124.371-.234.586-.316.2-.082.414-.152.63-.195A2.76 2.76 0 0 1 3.362 0h12.274c.226 0 .437.027.652.07a3.244 3.244 0 0 1 1.215.512c.187.125.348.277.508.43.16.164.293.332.414.523.12.195.226.387.304.61.082.207.149.43.188.652.043.219.066.457.066.676V15.5c0 .234-.023.457-.066.676-.04.222-.105.445-.188.652a3.55 3.55 0 0 1-.304.61c-.121.19-.27.359-.414.523a2.91 2.91 0 0 1-.508.43 3.274 3.274 0 0 1-1.215.511 3.4 3.4 0 0 1-.652.07H3.363c-.226 0-.437-.027-.652-.07a3.244 3.244 0 0 1-1.215-.511c-.187-.125-.348-.278-.508-.43a3.128 3.128 0 0 1-.414-.523 3.172 3.172 0 0 1-.304-.61 3.375 3.375 0 0 1-.188-.652A3.469 3.469 0 0 1 0 15.512zm0 0" fill="#000b1d"/><path d="M6.73 13.934c-.468 0-.894-.04-1.27-.121a4.31 4.31 0 0 1-.96-.32c-.066-.028-.105-.11-.105-.223v-1.547c0-.043.011-.059.027-.07.023-.016.05-.016.078 0a4.226 4.226 0 0 0 2.281.675c.485 0 .817-.066 1.032-.219.199-.152.304-.347.304-.566a.823.823 0 0 0-.105-.402 1.216 1.216 0 0 0-.348-.348 3.588 3.588 0 0 0-.695-.344l-.625-.277a5.006 5.006 0 0 1-1.203-.719 1.973 1.973 0 0 1-.602-.832 2.786 2.786 0 0 1-.16-.953c0-.473.11-.902.336-1.273.226-.391.558-.68 1-.903.441-.219 1-.332 1.656-.332.399 0 .774.027 1.121.086.348.055.63.137.84.246a.197.197 0 0 1 .094.168v1.465a.1.1 0 0 1-.028.059c-.023.027-.05.011-.078 0a3.55 3.55 0 0 0-.883-.332 4.136 4.136 0 0 0-1.039-.114 2.51 2.51 0 0 0-.617.07 1.399 1.399 0 0 0-.41.165.583.583 0 0 0-.23.25.68.68 0 0 0 .027.68c.082.109.203.222.375.331.172.11.414.235.734.387l.47.18c.546.234.983.484 1.292.746.309.265.535.555.656.86.117.304.184.636.184.995 0 .512-.133.957-.399 1.344-.265.387-.628.676-1.093.883-.469.195-1.016.305-1.657.305zm7.383-1.422v1.062c0 .098-.027.153-.105.168a2.76 2.76 0 0 1-.508.125c-.176.04-.375.055-.602.055-.546 0-.976-.152-1.28-.445-.31-.29-.47-.758-.47-1.41V8.843h-.734c-.066 0-.105-.043-.105-.114V7.445c0-.07.039-.11.105-.11h.734c.016-.151.016-.32.028-.51.011-.196.027-.391.054-.583.024-.195.04-.36.051-.472.016-.028.028-.055.043-.067.012-.031.04-.043.067-.043l1.492-.195a.075.075 0 0 1 .07 0c.012.015.024.027.024.086-.012.191-.024.469-.04.816-.011.344-.011.676-.027.996h1.164c.051 0 .078.04.078.11v1.316c0 .055-.027.082-.066.094h-1.188v2.742c0 .29.055.512.145.637.094.125.281.191.535.191h.215c.066 0 .133-.012.2-.012.027-.015.054 0 .066 0 .039 0 .054.028.054.07zm0 0" fill="#fff"/></svg><svg viewBox="0 0 20 22" id="linkedin" xmlns="http://www.w3.org/2000/svg"><path d="M18.57 1.375H1.426C.636 1.375 0 2 0 2.762v16.476c0 .762.637 1.387 1.426 1.387H18.57c.785 0 1.43-.625 1.43-1.387V2.762c0-.762-.645-1.387-1.43-1.387zm-12.527 16.5H3.082V8.687h2.969v9.188zM4.563 7.434c-.95 0-1.72-.743-1.72-1.653 0-.914.77-1.656 1.72-1.656.945 0 1.718.742 1.718 1.656 0 .914-.77 1.653-1.718 1.653zm12.593 10.441h-2.965v-4.469c0-1.066-.023-2.437-1.539-2.437-1.547 0-1.78 1.16-1.78 2.36v4.546H7.905V8.687h2.844v1.254h.04c.398-.718 1.366-1.48 2.808-1.48 3 0 3.558 1.902 3.558 4.379zm0 0"/></svg><svg viewBox="0 0 20 20" id="telegram" xmlns="http://www.w3.org/2000/svg"><path d="M10 .313C4.477.313 0 4.647 0 10c0 5.352 4.477 9.688 10 9.688S20 15.351 20 10 15.523.312 10 .312zm4.637 6.59c-.153 1.53-.805 5.245-1.133 6.964-.14.723-.418.969-.684.992-.582.051-1.023-.37-1.586-.73-.879-.559-1.379-.906-2.23-1.453-.988-.63-.348-.977.215-1.543.148-.145 2.707-2.403 2.754-2.606.007-.027.011-.12-.047-.172-.059-.05-.145-.03-.207-.02-.086.02-1.492.923-4.215 2.704-.402.266-.762.395-1.086.387-.356-.008-1.043-.196-1.555-.356-.625-.199-1.125-.3-1.082-.636.024-.176.274-.356.746-.536a452.94 452.94 0 0 1 5.832-2.433c2.778-1.121 3.352-1.313 3.73-1.32a.7.7 0 0 1 .388.113c.078.066.128.16.14.262.02.125.028.253.02.382zm0 0"/></svg></svg>