<?xml version="1.0" encoding="utf-8"?><svg viewBox="0 0 496 512" xmlns="http://www.w3.org/2000/svg" xmlns:xlink="http://www.w3.org/1999/xlink"><style>:root>svg{display:none}:root>svg:target{display:block}</style><svg viewBox="0 0 448 512" id="linkedin" xmlns="http://www.w3.org/2000/svg"><!--! Font Awesome Pro 6.4.0 by @fontawesome - https://fontawesome.com License - https://fontawesome.com/license (Commercial License) Copyright 2023 Fonticons, Inc.--><path d="M416 32H31.9C14.3 32 0 46.5 0 64.3v383.4C0 465.5 14.3 480 31.9 480H416c17.6 0 32-14.5 32-32.3V64.3c0-17.8-14.4-32.3-32-32.3zM135.4 416H69V202.2h66.5V416zm-33.2-243c-21.3 0-38.5-17.3-38.5-38.5S80.9 96 102.2 96c21.2 0 38.5 17.3 38.5 38.5 0 21.3-17.2 38.5-38.5 38.5zm282.1 243h-66.4V312c0-24.8-.5-56.7-34.5-56.7-34.6 0-39.9 27-39.9 54.9V416h-66.4V202.2h63.7v29.2h.9c8.9-16.8 30.6-34.5 62.9-34.5 67.2 0 79.7 44.3 79.7 101.9V416z"/></svg><svg viewBox="0 0 496 512" id="telegram" xmlns="http://www.w3.org/2000/svg"><!--! Font Awesome Pro 6.4.0 by @fontawesome - https://fontawesome.com License - https://fontawesome.com/license (Commercial License) Copyright 2023 Fonticons, Inc.--><path d="M248 8C111.033 8 0 119.033 0 256s111.033 248 248 248 248-111.033 248-248S384.967 8 248 8zm114.952 168.66c-3.732 39.215-19.881 134.378-28.1 178.3-3.476 18.584-10.322 24.816-16.948 25.425-14.4 1.326-25.338-9.517-39.287-18.661-21.827-14.308-34.158-23.215-55.346-37.177-24.485-16.135-8.612-25 5.342-39.5 3.652-3.793 67.107-61.51 68.335-66.746.153-.655.3-3.1-1.154-4.384s-3.59-.849-5.135-.5q-3.283.746-104.608 69.142-14.845 10.194-26.894 9.934c-8.855-.191-25.888-5.006-38.551-9.123-15.531-5.048-27.875-7.717-26.8-16.291q.84-6.7 18.45-13.7 108.446-47.248 144.628-62.3c68.872-28.647 83.183-33.623 92.511-33.789 2.052-.034 6.639.474 9.61 2.885a10.452 10.452 0 0 1 3.53 6.716 43.765 43.765 0 0 1 .417 9.769z"/></svg></svg>