<?xml version="1.0" encoding="utf-8"?><svg viewBox="0 0 496 512" xmlns="http://www.w3.org/2000/svg" xmlns:xlink="http://www.w3.org/1999/xlink"><style>:root>svg{display:none}:root>svg:target{display:block}</style><svg viewBox="0 0 47.1 45.4" style="enable-background:new 0 0 47.1 45.4" xml:space="preserve" id="adobe" xmlns="http://www.w3.org/2000/svg"><path d="M46.9 6.7c-.1-.5-.3-1.1-.5-1.6s-.5-1-.8-1.4c-.3-.5-.6-.9-1-1.3s-.8-.7-1.3-1c-.3-.3-.8-.5-1.3-.8-.5-.2-1-.4-1.6-.5-.5 0-1.1-.1-1.6-.1H8.3c-.5 0-1.1.1-1.6.2-.6.1-1.1.2-1.6.4s-1 .5-1.5.8c-.4.3-.8.6-1.2 1-.4.4-.7.8-1 1.3-.3.4-.6.9-.8 1.4-.2.5-.4 1-.5 1.6C0 7.2 0 7.8 0 8.3v28.8c0 1.1.2 2.2.7 3.2.2.5.5 1 .8 1.4.3.5.6.9 1 1.3s.8.7 1.3 1c.5.3.9.5 1.5.8.5.2 1 .4 1.6.5.5.1 1.1.2 1.6.1h30.4c1.1 0 2.2-.2 3.2-.6.5-.2 1-.5 1.5-.8.5-.3.9-.6 1.3-1s.7-.8 1-1.3c.3-.5.6-.9.8-1.4.2-.5.4-1 .5-1.6.1-.5.2-1.1.1-1.6V8.3c-.2-.5-.3-1.1-.4-1.6zM22.6 29.2c-.6.9-1.5 1.6-2.5 2-1.3.6-2.6.8-4 .8-1 0-2-.1-2.9-.3-.8-.1-1.5-.4-2.2-.8-.1-.1-.2-.3-.2-.5V27c0-.1 0-.1.1-.2h.2c.8.5 1.7.9 2.6 1.1.9.2 1.8.4 2.7.4.8.1 1.7-.1 2.4-.5.7-.5.9-1.4.5-2.1-.2-.3-.5-.6-.8-.8-.5-.3-1-.6-1.6-.8l-1.5-.6c-1-.4-1.9-1-2.8-1.6-.6-.5-1.1-1.1-1.4-1.9-.3-.7-.4-1.4-.4-2.1 0-2.1 1.2-4.1 3.1-4.9 1.2-.6 2.5-.8 3.9-.8.9 0 1.7.1 2.6.2.7.1 1.4.3 2 .6.1.1.2.2.2.4v3.3c0 .1 0 .1-.1.2h-.2c-.6-.4-1.3-.6-2-.7-.8-.2-1.6-.2-2.5-.2-.5 0-1 0-1.4.1-.3.1-.6.2-.9.4-.2.1-.4.3-.5.6-.1.2-.2.4-.2.7 0 .3.1.6.2.8.2.3.5.6.9.8.5.3 1.1.6 1.7.8l1.1.5c1.1.4 2.1 1 3 1.7.7.5 1.2 1.2 1.5 1.9.3.7.4 1.4.4 2.2 0 .8-.4 1.8-1 2.7zm13.5-8.5c0 .1-.1.2-.2.2h-2.7v6.3c0 .5.1 1 .3 1.4.2.3.6.5 1.2.5h.5c.2 0 .3-.1.5-.1h.1v2.6c0 .2-.1.3-.2.4l-1.2.3c-.5.1-.9.1-1.4.1-1.1.1-2.2-.3-3-1-.8-.9-1.1-2-1-3.2v-7.3h-1.8c-.2 0-.2-.1-.2-.3v-2.9c0-.1.1-.3.2-.3H29c0-.4 0-.7.1-1.2s0-.9.1-1.3.1-.8.1-1c0-.1 0-.1.1-.2.1 0 .1-.1.2-.1l3.4-.5h.2s.1.1.1.2c0 .5-.1 1.1-.1 1.8 0 .8-.1 1.5-.1 2.2h2.7c.2 0 .2.1.2.2v3.2z" style="fill:#000b1d"/></svg><svg viewBox="0 0 20 20" id="github" xmlns="http://www.w3.org/2000/svg"><path style="stroke:none;fill-rule:nonzero;fill:#000;fill-opacity:1" d="M6.691 15.523c0 .079-.093.141-.21.141-.133.012-.227-.05-.227-.14 0-.079.094-.141.21-.141.122-.012.227.05.227.14Zm-1.257-.175c-.028.078.054.168.175.191.106.04.227 0 .25-.078.024-.078-.054-.168-.175-.203-.102-.028-.22.012-.25.09Zm1.785-.067c-.117.028-.2.102-.188.192.012.078.117.129.239.101.117-.027.199-.101.187-.18-.012-.074-.121-.124-.238-.113ZM9.87.312C4.277.313 0 4.426 0 9.845c0 4.332 2.816 8.039 6.836 9.344.516.09.695-.22.695-.473 0-.242-.011-1.578-.011-2.399 0 0-2.82.586-3.415-1.164 0 0-.46-1.136-1.12-1.43 0 0-.926-.613.062-.6 0 0 1.004.077 1.558 1.007.883 1.508 2.364 1.074 2.938.816.094-.625.355-1.058.648-1.316-2.257-.242-4.53-.559-4.53-4.316 0-1.075.308-1.614.952-2.301-.105-.254-.449-1.301.106-2.653.84-.254 2.781 1.055 2.781 1.055a9.74 9.74 0 0 1 2.531-.332c.86 0 1.727.113 2.535.332 0 0 1.938-1.312 2.782-1.055.55 1.356.207 2.399.105 2.653.645.691 1.04 1.23 1.04 2.3 0 3.77-2.376 4.07-4.63 4.317.371.309.684.894.684 1.812 0 1.317-.012 2.946-.012 3.266 0 .254.188.563.7.473C17.264 17.883 20 14.176 20 9.844 20 4.426 15.465.313 9.871.313ZM3.918 13.786c-.05.04-.04.13.031.203.063.063.156.09.207.04.055-.04.043-.13-.027-.204-.063-.062-.156-.09-.211-.039Zm-.434-.316c-.027.05.012.113.094.152.063.04.145.027.172-.027.027-.051-.012-.114-.094-.153-.078-.023-.144-.011-.172.028Zm1.305 1.39c-.062.051-.039.168.055.243.09.09.207.101.261.039.051-.051.028-.168-.054-.243-.086-.09-.207-.101-.262-.039Zm-.457-.574c-.066.04-.066.14 0 .23.063.09.172.13.223.09.066-.05.066-.152 0-.242-.055-.09-.16-.129-.223-.078Zm0 0"/></svg><svg viewBox="0 0 448 448" style="enable-background:new 0 0 448 448" xml:space="preserve" id="linkedin" xmlns="http://www.w3.org/2000/svg"><path d="M416 0H31.9C14.3 0 0 14.5 0 32.3v383.4C0 433.5 14.3 448 31.9 448H416c17.6 0 32-14.5 32-32.3V32.3C448 14.5 433.6 0 416 0zM135.4 384H69V170.2h66.5V384h-.1zm-33.2-243c-21.3 0-38.5-17.3-38.5-38.5S80.9 64 102.2 64c21.2 0 38.5 17.3 38.5 38.5 0 21.3-17.2 38.5-38.5 38.5zm282.1 243h-66.4V280c0-24.8-.5-56.7-34.5-56.7-34.6 0-39.9 27-39.9 54.9V384h-66.4V170.2h63.7v29.2h.9c8.9-16.8 30.6-34.5 62.9-34.5 67.2 0 79.7 44.3 79.7 101.9V384z"/></svg><svg viewBox="0 0 496 512" id="telegram" xmlns="http://www.w3.org/2000/svg"><!--! Font Awesome Pro 6.4.0 by @fontawesome - https://fontawesome.com License - https://fontawesome.com/license (Commercial License) Copyright 2023 Fonticons, Inc.--><path d="M248 8C111.033 8 0 119.033 0 256s111.033 248 248 248 248-111.033 248-248S384.967 8 248 8zm114.952 168.66c-3.732 39.215-19.881 134.378-28.1 178.3-3.476 18.584-10.322 24.816-16.948 25.425-14.4 1.326-25.338-9.517-39.287-18.661-21.827-14.308-34.158-23.215-55.346-37.177-24.485-16.135-8.612-25 5.342-39.5 3.652-3.793 67.107-61.51 68.335-66.746.153-.655.3-3.1-1.154-4.384s-3.59-.849-5.135-.5q-3.283.746-104.608 69.142-14.845 10.194-26.894 9.934c-8.855-.191-25.888-5.006-38.551-9.123-15.531-5.048-27.875-7.717-26.8-16.291q.84-6.7 18.45-13.7 108.446-47.248 144.628-62.3c68.872-28.647 83.183-33.623 92.511-33.789 2.052-.034 6.639.474 9.61 2.885a10.452 10.452 0 0 1 3.53 6.716 43.765 43.765 0 0 1 .417 9.769z"/></svg><svg viewBox="0 0 20 20" id="viber" xmlns="http://www.w3.org/2000/svg"><path style="stroke:none;fill-rule:nonzero;fill:#000;fill-opacity:1" d="M17.344 1.95c-.496-.458-2.504-1.915-6.98-1.934 0 0-5.278-.317-7.848 2.043C1.086 3.489.582 5.586.527 8.184c-.054 2.597-.12 7.464 4.57 8.785h.005l-.004 2.015s-.032.817.507.98c.649.204 1.032-.417 1.653-1.085.34-.367.808-.906 1.164-1.317 3.21.27 5.676-.347 5.957-.437.648-.21 4.316-.68 4.91-5.547.617-5.023-.297-8.195-1.945-9.629Zm.543 9.26c-.504 4.063-3.477 4.321-4.024 4.497-.234.074-2.402.613-5.125.438 0 0-2.031 2.449-2.664 3.085-.207.207-.433.188-.43-.222 0-.27.016-3.348.016-3.348-.004 0-.004 0 0 0-3.976-1.101-3.742-5.246-3.7-7.414.044-2.168.454-3.945 1.665-5.14 2.176-1.973 6.656-1.68 6.656-1.68 3.785.015 5.598 1.156 6.02 1.539 1.394 1.195 2.105 4.055 1.586 8.246Zm-5.43-3.155c.016.336-.488.36-.504.023-.043-.86-.445-1.277-1.273-1.324-.336-.02-.305-.524.027-.504 1.09.059 1.695.684 1.75 1.805Zm.793.441c.04-1.656-.996-2.953-2.96-3.098-.333-.023-.298-.527.034-.503 2.266.164 3.473 1.722 3.43 3.613-.004.336-.512.32-.504-.012Zm1.836.524c.004.335-.504.34-.504.003-.023-3.183-2.145-4.918-4.719-4.937-.332-.004-.332-.504 0-.504 2.88.02 5.196 2.008 5.223 5.438Zm-.441 3.832v.007c-.422.743-1.211 1.563-2.024 1.301l-.008-.012c-.824-.23-2.765-1.23-3.992-2.207-.633-.5-1.21-1.09-1.656-1.656a12.676 12.676 0 0 1-1.203-1.82C4.93 6.96 4.746 6.289 4.746 6.289c-.262-.812.555-1.601 1.3-2.023h.009c.36-.188.703-.125.933.152 0 0 .485.578.692.863.195.266.457.692.593.93.239.426.09.86-.144 1.039l-.469.375c-.238.191-.207.547-.207.547s.695 2.629 3.293 3.293c0 0 .356.031.547-.207l.375-.469c.18-.234.613-.383 1.039-.144.574.324 1.305.828 1.79 1.285.273.222.335.562.148.922Zm0 0"/></svg></svg>